<svg xmlns="http://www.w3.org/2000/svg" viewBox="0 0 200 210" role="img" aria-label="BodyBuddy 마스코트">
  <!-- 몸통 -->
  <ellipse cx="100" cy="140" rx="52" ry="46" fill="#F2A58C"/>
  <!-- 팔 -->
  <ellipse cx="42" cy="118" rx="14" ry="26" fill="#F2A58C" transform="rotate(28 42 118)"/>
  <ellipse cx="158" cy="118" rx="14" ry="26" fill="#F2A58C" transform="rotate(-28 158 118)"/>
  <!-- 다리 -->
  <rect x="76" y="166" width="16" height="28" rx="8" fill="#F2A58C"/>
  <rect x="108" y="166" width="16" height="28" rx="8" fill="#F2A58C"/>
  <!-- 발 -->
  <ellipse cx="80" cy="198" rx="16" ry="8" fill="#D95F2B"/>
  <ellipse cx="120" cy="198" rx="16" ry="8" fill="#D95F2B"/>
  <!-- 머리 -->
  <circle cx="100" cy="58" r="40" fill="#F2A58C"/>
  <!-- 머리카락 -->
  <path d="M82 26 q5 -12 15 -6 q4 -8 12 -3 q9 -4 10 8 q3 10 -7 12 q-12 4 -22 0 q-10 -1 -8 -11z" fill="#5B2B12"/>
  <!-- 얼굴 -->
  <circle cx="86" cy="56" r="4.5" fill="#3E2417"/>
  <circle cx="114" cy="56" r="4.5" fill="#3E2417"/>
  <circle cx="78" cy="68" r="5" fill="#F8C7CB"/>
  <circle cx="122" cy="68" r="5" fill="#F8C7CB"/>
  <path d="M88 70 q12 10 24 0" fill="none" stroke="#3E2417" stroke-width="3" stroke-linecap="round"/>
  <!-- 스켈레톤 (점선 + 관절 점) -->
  <g stroke="#1E7A5C" stroke-width="2.5" stroke-dasharray="1 5" stroke-linecap="round" fill="none">
    <path d="M100 78 v14 M72 104 h56 M100 104 v34 M80 138 h40 M80 138 v30 M120 138 v30 M72 104 l-18 16 M128 104 l18 16"/>
  </g>
  <g fill="#1E7A5C">
    <circle cx="100" cy="78" r="4"/><circle cx="100" cy="92" r="3.5"/>
    <circle cx="72" cy="104" r="4"/><circle cx="128" cy="104" r="4"/>
    <circle cx="54" cy="120" r="3.5"/><circle cx="146" cy="120" r="3.5"/>
    <circle cx="100" cy="104" r="3.5"/><circle cx="100" cy="138" r="4"/>
    <circle cx="80" cy="138" r="3.5"/><circle cx="120" cy="138" r="3.5"/>
    <circle cx="80" cy="168" r="3.5"/><circle cx="120" cy="168" r="3.5"/>
  </g>
</svg>
